# xmcd
#
# Track frame offsets: 
#        150
#        13310
#        26823
#        40112
#        52953
#        67433
#        77235
#        89645
#        100758
#        113836
#        124146
#        133917
#        143122
#        154975
#        162572
#        175740
#        188657
#        204081
#        212733
#        225612
#        239683
#        251050
#        257885
#        267415
#        282212
#        291005
#        299858
#        309742
#        319428
#        332811
#
# Disc length: 4560 seconds
#
# Revision: 0
# Processed by: cddbd v1.5.2PL0 Copyright (c) Steve Scherf et al.
# Submitted via: ExactAudioCopyFreeDBPlugin 1.0
#
DISCID=e211ce1e
DTITLE=Various Artist - America! Country CD1
DYEAR=2014
DGENRE=Country
TTITLE0=Aunt Molly Jackson - Hungry ragged blues
TTITLE1=Bob Miller - The Rich man and the poor man
TTITLE2=Jimmie Rodgers - Somewhere down below the Dixon line
TTITLE3=Bradley Kincaid - The Life of Jimmie Rodgers
TTITLE4=The Carter Family - Wildwood flower
TTITLE5=Harry McClintock - Big Rock Candy Mountain
TTITLE6=Frank Proffitt - Tom Dooley 
TTITLE7=Woody Guthrie - Pastures of plenty
TTITLE8=Tha Almanach Singers - House of the rising sun
TTITLE9=Pete Seeger - We shall not be moved
TTITLE10=The Union Boys - U.A.W. - C.I.O.
TTITLE11=Woody Guthrie - Better world
TTITLE12=Woody Guthrie - This land is your land
TTITLE13=Burl Ives - The Erie Canal
TTITLE14=Leadbelly - Rock Island line
TTITLE15=Josh White - Whatcha gonna do
TTITLE16=Big Bill Broonzy - Bill Bailey
TTITLE17=Pete Seeger - He lies in the American land
TTITLE18=The Weavers - Clementine
TTITLE19=Oscar Brand - Good ship Venus
TTITLE20=Jean Ritchie - Nottamun town
TTITLE21=Cisco Houston - Hard traveling
TTITLE22=John Jacob Niles - Black is the color of my true love's hair
TTITLE23=Harry Belafonte - Scarlet Ribbons
TTITLE24=Odetta - Santy Anno
TTITLE25=Ed McCurdy - Josie
TTITLE26=Glenn Yarbrough - Poor boy
TTITLE27=Susan Reed - Molly Malone
TTITLE28=Pete Seeger - John Brown's body
TTITLE29=Ramblin' Jack Elliott - I'm going down the road
EXTD=
EXTT0=
EXTT1=
EXTT2=
EXTT3=
EXTT4=
EXTT5=
EXTT6=
EXTT7=
EXTT8=
EXTT9=
EXTT10=
EXTT11=
EXTT12=
EXTT13=
EXTT14=
EXTT15=
EXTT16=
EXTT17=
EXTT18=
EXTT19=
EXTT20=
EXTT21=
EXTT22=
EXTT23=
EXTT24=
EXTT25=
EXTT26=
EXTT27=
EXTT28=
EXTT29=
PLAYORDER=
